<?xml version="1.0" encoding="utf-8"?>
<svg xmlns="http://www.w3.org/2000/svg"
	xmlns:xlink="http://www.w3.org/1999/xlink"
	width="20px" height="20px" viewBox="0 0 20 20">
<path fillRule="evenodd" d="M 10 19.99C 4.47 19.99-0 15.52-0 10-0 4.48 4.47-0 10-0 15.52-0 20 4.48 20 10 20 15.52 15.52 19.99 10 19.99ZM 10 1.25C 5.17 1.25 1.25 5.17 1.25 10 1.25 14.82 5.17 18.76 10 18.76 14.82 18.76 18.75 14.82 18.75 10 18.75 5.17 14.82 1.25 10 1.25ZM 8.6 13.53C 8.59 13.54 8.59 13.56 8.57 13.58 8.33 13.82 7.93 13.82 7.69 13.58 7.69 13.58 4.59 10.48 4.59 10.48 4.35 10.24 4.35 9.84 4.59 9.6 4.84 9.36 5.23 9.36 5.48 9.6 5.48 9.6 8.12 12.24 8.12 12.24 8.12 12.24 13.99 6.34 13.99 6.34 14.23 6.09 14.63 6.09 14.87 6.34 15.12 6.58 15.12 6.98 14.87 7.22 14.87 7.22 8.6 13.53 8.6 13.53Z" fill="rgb(26,26,26)"/></svg>