<?xml version="1.0" encoding="utf-8"?>
<svg xmlns="http://www.w3.org/2000/svg"
	xmlns:xlink="http://www.w3.org/1999/xlink"
	width="20px" height="14px" viewBox="0 0 20 14">
<path fillRule="evenodd" d="M 19.98 7.19C 19.97 7.22 19.98 7.26 19.97 7.29 19.96 7.3 19.95 7.31 19.95 7.32 19.94 7.34 19.94 7.36 19.94 7.38 18.12 11.61 14.17 14 10 14 5.84 14 1.89 11.6 0.07 7.37 0.06 7.36 0.06 7.33 0.06 7.32 0.05 7.3 0.04 7.3 0.04 7.28 0.03 7.25 0.04 7.22 0.03 7.19 0.02 7.13 0.01 7.07 0.01 7.02 0.01 6.96 0.02 6.9 0.03 6.85 0.04 6.81 0.03 6.78 0.04 6.75 0.04 6.74 0.05 6.73 0.06 6.72 0.06 6.7 0.06 6.68 0.07 6.66 1.89 2.43 5.88 0 10.04 0 14.21 0 18.12 2.44 19.94 6.66 19.94 6.68 19.94 6.7 19.95 6.72 19.95 6.73 19.96 6.74 19.97 6.75 19.98 6.79 19.97 6.82 19.98 6.85 19.99 6.91 20 6.96 20 7.02 20 7.08 19.99 7.14 19.98 7.19ZM 10.04 1.27C 6.5 1.27 2.97 3.22 1.28 7.02 2.99 10.83 6.47 12.73 10 12.73 13.55 12.73 17.03 10.82 18.73 7.02 17.03 3.22 13.58 1.27 10.04 1.27ZM 10.07 10.84C 8 10.84 6.33 9.13 6.33 7.03 6.33 4.92 8 3.22 10.07 3.22 12.14 3.22 13.81 4.92 13.81 7.03 13.81 9.13 12.14 10.84 10.07 10.84ZM 10.04 4.46C 8.67 4.46 7.55 5.6 7.55 7 7.55 8.4 8.7 9.57 10.07 9.57 11.45 9.57 12.54 8.4 12.54 7 12.54 5.6 11.42 4.46 10.04 4.46Z" fill="rgb(26,26,26)"/></svg>