<?xml version="1.0" encoding="utf-8"?>
<svg xmlns="http://www.w3.org/2000/svg"
	xmlns:xlink="http://www.w3.org/1999/xlink"
	width="95px" height="95px" viewBox="0 0 95 95">
<style type="text/css"><![CDATA[
.style0 {
  font-size: 72px;
  font-family: "jbmjelmjnedekkdjnkcjagmnjmidcegc";
  fill: rgb(0,0,0);
}
.style1 {
  font-size: 72px;
  font-family: "MuseoSansCyrl-500";
  fill: rgb(0,0,0);
}
.style2 {
  font-size: 24px;
  font-family: "MuseoSansCyrl-500";
  fill: rgb(0,0,0);
}
]]></style>
<path id="textPath0" d="M 154.00 319.00 C 154.00 378.07 178.40 431.43 217.65 469.59 C 134.34 441.19 74.00 357.88 74.00 259.50 C 74.00 137.72 166.45 39.00 280.50 39.00 C 347.03 39.00 406.21 72.61 443.97 124.78 C 419.32 114.62 392.32 109.00 364.00 109.00 C 248.02 109.00 154.00 203.02 154.00 319.00"/><path id="textPath1" d="M 274.50 63.00 C 163.77 63.00 74.00 152.77 74.00 263.50 C 74.00 374.23 163.77 464.00 274.50 464.00 C 385.23 464.00 475.00 374.23 475.00 263.50 C 475.00 152.77 385.23 63.00 274.50 63.00"/><filter filterUnits="objectBoundingBox" x="0.00" y="0.00" width="100.00" height="100.00" id="filter0">
<feFlood flood-color="rgb(71,71,71)" result="coFloodOut1"/>
<feComposite in="coFloodOut1" in2="SourceAlpha" operator="in" result="coOverlay1"/>
<feBlend in="coOverlay1" in2="SourceGraphic" mode="normal" result="colorOverlay1"/>
</filter>
<filter filterUnits="objectBoundingBox" x="0.00" y="0.00" width="100.00" height="100.00" id="filter1">
<feFlood flood-color="rgb(71,71,71)" result="coFloodOut1"/>
<feComposite in="coFloodOut1" in2="SourceAlpha" operator="in" result="coOverlay1"/>
<feBlend in="coOverlay1" in2="SourceGraphic" mode="normal" result="colorOverlay1"/>
</filter>
<filter filterUnits="objectBoundingBox" x="0.00" y="0.00" width="100.00" height="100.00" id="filter2">
<feFlood flood-color="rgb(71,71,71)" result="coFloodOut1"/>
<feComposite in="coFloodOut1" in2="SourceAlpha" operator="in" result="coOverlay1"/>
<feBlend in="coOverlay1" in2="SourceGraphic" mode="normal" result="colorOverlay1"/>
</filter>
<filter filterUnits="objectBoundingBox" x="0.00" y="0.00" width="100.00" height="100.00" id="filter3">
<feFlood flood-color="rgb(71,71,71)" result="coFloodOut1"/>
<feComposite in="coFloodOut1" in2="SourceAlpha" operator="in" result="coOverlay1"/>
<feBlend in="coOverlay1" in2="SourceGraphic" mode="normal" result="colorOverlay1"/>
</filter>
<filter filterUnits="objectBoundingBox" x="0.00" y="0.00" width="100.00" height="100.00" id="filter4">
<feFlood flood-color="rgb(71,71,71)" result="coFloodOut1"/>
<feComposite in="coFloodOut1" in2="SourceAlpha" operator="in" result="coOverlay1"/>
<feBlend in="coOverlay1" in2="SourceGraphic" mode="normal" result="colorOverlay1"/>
</filter>
<filter filterUnits="objectBoundingBox" x="0.00" y="0.00" width="100.00" height="100.00" id="filter5">
<feFlood flood-color="rgb(71,71,71)" result="coFloodOut1"/>
<feComposite in="coFloodOut1" in2="SourceAlpha" operator="in" result="coOverlay1"/>
<feBlend in="coOverlay1" in2="SourceGraphic" mode="normal" result="colorOverlay1"/>
</filter>
<path fillRule="evenodd" d="M 47.45 93C 49.12 93 50.82 92.9 52.5 92.72 77.43 89.97 95.47 67.44 92.72 42.51 90.17 19.42 70.76 2 47.57 2 45.89 2 44.19 2.1 42.52 2.28 17.59 5.03-0.46 27.56 2.29 52.49 4.84 75.58 24.25 93 47.45 93M 47.45 95C 23.56 95 2.99 77.01 0.31 52.71-2.57 26.64 16.23 3.17 42.3 0.29 44.07 0.1 45.83 0 47.57 0 71.46 0 92.03 17.99 94.71 42.29 97.58 68.36 78.78 91.83 52.71 94.71 50.95 94.9 49.19 95 47.45 95 47.45 95 47.45 95 47.45 95Z" fill="rgb(0,0,0)" filter="url(#filter0)"/><text transform="matrix(0.16,-0.02,0.02,0.16,11.12,18.86)" class="style0" filter="url(#filter1)"><tspan x="560.19" fill="rgb(0,0,0)">    УЧЕБНИК</tspan></text><text transform="matrix(0.01,0.20,-0.20,0.01,86.18,6.59)" filter="url(#filter2)"><tspan x="-1101.12" fill="rgb(0,0,0)" class="style1">                          </tspan><tspan fill="rgb(0,0,0)" class="style2">ПОРТАЛ ОЦЕНКИ КАЧЕСТВА ШКОЛЬНЫХ УЧЕБНИКОВ</tspan></text><circle cx="13.50" cy="31.50" r="1.50" fill="rgb(0,0,0)" filter="url(#filter3)"/><ellipse cx="81.00" cy="31.50" rx="2.00" ry="1.50" fill="rgb(0,0,0)" filter="url(#filter4)"/><path fillRule="evenodd" d="M 59.69 69.44C 59.69 69.44 34.65 69.44 34.65 69.44 32.26 69.44 30.32 67.51 30.32 65.12 30.32 65.12 30.32 33.95 30.32 33.95 30.32 31.57 32.26 29.64 34.65 29.64 34.65 29.64 59.69 29.64 59.69 29.64 62.08 29.64 64.01 31.57 64.01 33.95 64.01 33.95 64.01 65.12 64.01 65.12 64.01 67.51 62.08 69.44 59.69 69.44ZM 38.43 32.12C 38.43 32.12 34.65 32.12 34.65 32.12 33.64 32.12 32.82 32.94 32.82 33.95 32.82 33.95 32.82 65.12 32.82 65.12 32.82 66.13 33.64 66.95 34.65 66.95 34.65 66.95 38.43 66.95 38.43 66.95 38.43 66.95 38.43 32.12 38.43 32.12ZM 54.65 32.12C 54.65 32.12 48.42 32.12 48.42 32.12 48.42 32.12 48.42 41.98 48.42 41.98 48.42 41.98 51.27 40.61 51.27 40.61 51.35 40.57 51.44 40.55 51.54 40.55 51.63 40.55 51.72 40.57 51.8 40.61 51.8 40.61 54.65 41.98 54.65 41.98 54.65 41.98 54.65 32.12 54.65 32.12ZM 61.52 33.95C 61.52 32.94 60.7 32.12 59.69 32.12 59.69 32.12 55.9 32.12 55.9 32.12 55.9 32.12 55.9 42.96 55.9 42.96 55.9 43.18 55.79 43.38 55.61 43.49 55.51 43.55 55.39 43.58 55.28 43.58 55.19 43.58 55.09 43.56 55.01 43.52 55.01 43.52 51.54 41.86 51.54 41.86 51.54 41.86 48.06 43.52 48.06 43.52 47.87 43.62 47.64 43.6 47.46 43.49 47.28 43.38 47.17 43.18 47.17 42.96 47.17 42.96 47.17 32.12 47.17 32.12 47.17 32.12 39.68 32.12 39.68 32.12 39.68 32.12 39.68 66.95 39.68 66.95 39.68 66.95 59.69 66.95 59.69 66.95 60.7 66.95 61.52 66.13 61.52 65.12 61.52 65.12 61.52 33.95 61.52 33.95ZM 56.86 65.7C 56.86 65.7 46.62 65.7 46.62 65.7 46.28 65.7 46 65.43 46 65.08 46 64.74 46.28 64.46 46.62 64.46 46.62 64.46 56.86 64.46 56.86 64.46 57.84 64.46 59.02 63.28 59.02 61.47 59.02 61.47 59.02 59.49 59.02 59.49 59.02 59.14 59.3 58.86 59.65 58.86 59.99 58.86 60.27 59.14 60.27 59.49 60.27 59.49 60.27 61.47 60.27 61.47 60.27 64.04 58.6 65.7 56.86 65.7ZM 59.18 56.97C 59.01 56.97 58.85 56.9 58.73 56.79 58.62 56.67 58.55 56.51 58.55 56.35 58.55 56.18 58.62 56.02 58.73 55.9 58.96 55.68 59.38 55.67 59.61 55.9 59.73 56.02 59.8 56.18 59.8 56.35 59.8 56.51 59.73 56.67 59.62 56.79 59.5 56.9 59.34 56.97 59.18 56.97Z" fill="rgb(0,0,0)" filter="url(#filter5)"/></svg>