<?xml version="1.0" encoding="utf-8"?>
<svg xmlns="http://www.w3.org/2000/svg"
	xmlns:xlink="http://www.w3.org/1999/xlink"
	width="16px" height="16px" viewBox="0 0 16 16">
<path fillRule="evenodd" d="M 15.01 16.01C 15.01 16.01 6 16.01 6 16.01 5.45 16.01 5 15.56 5 15 5 15 5 10.49 5 10.49 5 10.49 6.01 10.49 6.01 10.49 6.01 10.49 6.01 14.4 6.01 14.4 6.01 14.73 6.28 15.01 6.62 15.01 6.62 15.01 14.39 15.01 14.39 15.01 14.73 15.01 15 14.73 15 14.4 15 14.4 14.98 1.61 14.98 1.61 14.98 1.27 14.71 1 14.38 1 14.38 1 6.62 1 6.62 1 6.28 1 6.01 1.27 6.01 1.61 6.01 1.61 6.01 5.5 6.01 5.5 6.01 5.5 5 5.5 5 5.5 5 5.5 5 1 5 1 5 0.45 5.45-0 6-0 6-0 15.01-0 15.01-0 15.56-0 16.01 0.45 16.01 1 16.01 1 16.01 15 16.01 15 16.01 15.56 15.56 16.01 15.01 16.01ZM 8.32 5.69C 8.13 5.49 8.13 5.17 8.32 4.98 8.52 4.78 8.83 4.78 9.03 4.98 9.03 4.98 11.98 8.01 11.98 8.01 11.98 8.01 9.03 11.04 9.03 11.04 8.93 11.14 8.8 11.19 8.68 11.19 8.55 11.19 8.42 11.14 8.32 11.04 8.13 10.85 8.13 10.53 8.32 10.34 8.32 10.34 10.16 8.5 10.16 8.5 10.16 8.5 0.5 8.5 0.5 8.5 0.22 8.5-0 8.27-0 8-0 7.72 0.22 7.5 0.5 7.5 0.5 7.5 10.13 7.5 10.13 7.5 10.13 7.5 8.32 5.69 8.32 5.69Z" fill="rgb(43,43,43)"/></svg>