<?xml version="1.0" encoding="utf-8"?>
<svg xmlns="http://www.w3.org/2000/svg"
	xmlns:xlink="http://www.w3.org/1999/xlink"
	width="26px" height="45px" viewBox="0 0 26 45">
<path fillRule="evenodd" d="M 13.24 44.71C 6.44 44.71 0.78 39.19 0.78 32.39 0.78 32.39 0.78 12.95 0.78 12.95 0.78 6.15 6.44 0.62 13.24 0.62 20.05 0.62 25.57 6.15 25.57 12.95 25.57 12.95 25.57 32.39 25.57 32.39 25.57 39.19 20.05 44.71 13.24 44.71ZM 22.81 12.95C 22.81 7.67 18.52 3.38 13.24 3.38 7.97 3.38 3.54 7.67 3.54 12.95 3.54 12.95 3.54 32.39 3.54 32.39 3.54 37.66 7.97 41.96 13.24 41.96 18.52 41.96 22.81 37.66 22.81 32.39 22.81 32.39 22.81 12.95 22.81 12.95ZM 13.19 18.54C 12.43 18.54 11.81 17.92 11.81 17.16 11.81 17.16 11.81 10.27 11.81 10.27 11.81 9.51 12.43 8.89 13.19 8.89 13.95 8.89 14.57 9.51 14.57 10.27 14.57 10.27 14.57 17.16 14.57 17.16 14.57 17.92 13.95 18.54 13.19 18.54Z" fill="rgb(255,255,255)"/></svg>