<?xml version="1.0" encoding="utf-8"?>
<svg xmlns="http://www.w3.org/2000/svg"
	xmlns:xlink="http://www.w3.org/1999/xlink"
	width="20px" height="20px" viewBox="0 0 20 20">
<path fillRule="evenodd" d="M 10 20C 4.47 20-0.01 15.53-0.01 10-0.01 4.47 4.47-0.01 10-0.01 15.52-0.01 20 4.47 20 10 20 15.53 15.52 20 10 20ZM 10 1.25C 5.17 1.25 1.24 5.17 1.24 10 1.24 14.83 5.17 18.77 10 18.77 14.82 18.77 18.75 14.83 18.75 10 18.75 5.17 14.82 1.25 10 1.25ZM 10.84 13.99C 10.68 13.99 10.52 13.93 10.39 13.8 10.15 13.56 10.15 13.16 10.39 12.92 10.39 12.92 12.69 10.62 12.69 10.62 12.69 10.62 5.61 10.62 5.61 10.62 5.27 10.62 4.99 10.34 4.99 9.99 4.99 9.65 5.27 9.37 5.61 9.37 5.61 9.37 12.65 9.37 12.65 9.37 12.65 9.37 10.39 7.11 10.39 7.11 10.15 6.86 10.15 6.47 10.39 6.22 10.64 5.98 11.03 5.98 11.28 6.22 11.28 6.22 14.97 10.01 14.97 10.01 14.97 10.01 11.28 13.8 11.28 13.8 11.16 13.93 11 13.99 10.84 13.99Z" fill="rgb(255,255,255)"/></svg>