<?xml version="1.0" encoding="utf-8"?>
<svg xmlns="http://www.w3.org/2000/svg"
	xmlns:xlink="http://www.w3.org/1999/xlink"
	width="11px" height="22px" viewBox="0 0 11 22">
<path fillRule="evenodd" d="M 10.64 2.66C 10.64 2.66 3.38 11.01 3.38 11.01 3.38 11.01 10.63 19.35 10.63 19.35 11.11 19.84 11.11 20.64 10.64 21.13 10.16 21.62 9.38 21.61 8.9 21.12 8.9 21.12 0.89 11.91 0.89 11.91 0.88 11.9 0.87 11.9 0.86 11.89 0.38 11.4 0.38 10.59 0.87 10.1 0.87 10.1 8.89 0.87 8.89 0.87 9.37 0.38 10.16 0.37 10.64 0.87 11.12 1.37 11.12 2.17 10.64 2.66Z" fill="rgb(255,255,255)" opacity="0.50"/></svg>