<?xml version="1.0" encoding="utf-8"?>
<svg xmlns="http://www.w3.org/2000/svg"
	xmlns:xlink="http://www.w3.org/1999/xlink"
	width="11px" height="22px" viewBox="0 0 11 22">
<path fillRule="evenodd" d="M 10.14 11.89C 10.13 11.9 10.12 11.9 10.11 11.91 10.11 11.91 2.1 21.12 2.1 21.12 1.62 21.61 0.84 21.62 0.36 21.13-0.11 20.64-0.11 19.84 0.37 19.35 0.37 19.35 7.62 11.01 7.62 11.01 7.62 11.01 0.36 2.66 0.36 2.66-0.12 2.17-0.12 1.37 0.36 0.87 0.84 0.37 1.63 0.38 2.11 0.87 2.11 0.87 10.13 10.1 10.13 10.1 10.62 10.59 10.62 11.4 10.14 11.89Z" fill="rgb(255,255,255)" opacity="0.50"/></svg>