<?xml version="1.0" encoding="utf-8"?>
<svg xmlns="http://www.w3.org/2000/svg"
	xmlns:xlink="http://www.w3.org/1999/xlink"
	width="16px" height="16px" viewBox="0 0 16 16">
<path fillRule="evenodd" d="M 8 1C 9.7 1 11.5 2.44 11.5 3.5 11.5 3.5 11.5 6 11.5 6 11.5 6.97 11.1 8.81 10.03 9.65 9.75 9.87 9.61 10.21 9.65 10.55 9.69 10.9 9.91 11.2 10.23 11.35 10.23 11.35 14.58 13.41 14.58 13.41 14.62 13.43 15 13.49 15 14.03 15 14.03 15 15 15 15 15 15 1 15 1 15 1 15 1 13.99 1 13.99 1 13.59 1.29 13.46 1.41 13.41 1.41 13.41 5.81 11.34 5.81 11.34 6.12 11.19 6.34 10.89 6.38 10.55 6.43 10.21 6.29 9.87 6.02 9.65 4.98 8.81 4.49 6.98 4.49 6 4.49 6 4.49 3.5 4.49 3.5 4.49 2.46 6.31 1 8 1M 8 0C 5.79 0 3.49 1.85 3.49 3.5 3.49 3.5 3.49 6 3.49 6 3.49 7.1 3.99 9.31 5.39 10.43 5.39 10.43 0.99 12.5 0.99 12.5 0.99 12.5-0.01 12.95-0.01 13.5-0.01 13.5-0.01 15-0.01 15-0.01 15.56 0.44 16 0.99 16 0.99 16 15 16 15 16 15.55 16 16 15.56 16 15 16 15 16 13.5 16 13.5 16 12.91 15 12.5 15 12.5 15 12.5 10.65 10.44 10.65 10.44 12.03 9.35 12.5 7.2 12.5 6 12.5 6 12.5 3.5 12.5 3.5 12.5 1.85 10.21 0 8 0 8 0 8 0 8 0Z" fill="rgb(43,43,43)"/></svg>